# xmcd
#
# Track frame offsets: 
#        150
#        39310
#        60514
#        83865
#        94692
#        122482
#        151065
#        176667
#        202387
#        222427
#
# Disc length: 3265 seconds
#
# Revision: 1
# Processed by: cddbd v1.5.2PL0 Copyright (c) Steve Scherf et al.
# Submitted via: ExactAudioCopyFreeDBPlugin 1.0
#
DISCID=830cbf0a
DTITLE=Built To Spill - You In Reverse
DYEAR=2006
DGENRE=
TTITLE0=Goin' Against Your Mind
TTITLE1=Traces
TTITLE2=Liar
TTITLE3=Saturday
TTITLE4=Wherever You Go
TTITLE5=Conventional Wisdom
TTITLE6=Gone
TTITLE7=Mess With Time
TTITLE8=Just A Habit
TTITLE9=The Wait
EXTD=
EXTT0=
EXTT1=
EXTT2=
EXTT3=
EXTT4=
EXTT5=
EXTT6=
EXTT7=
EXTT8=
EXTT9=
PLAYORDER=
